<?xml version="1.0" encoding="utf-8"?>
<svg version="1.1" id="Layer_1" x="0px" y="0px" viewBox="0 0 552.8 198.8" style="enable-background:new 0 0 552.8 198.8;" xmlns="http://www.w3.org/2000/svg">
  <style type="text/css">
	.st0{fill:#FFFFFF;}
	.st1{clip-path:url(#SVGID_2_);}
	.st2{fill:#3D3D3D;}
	.st3{clip-path:url(#SVGID_4_);}
	.st4{clip-path:url(#SVGID_6_);}
	.st5{clip-path:url(#SVGID_11_);}
	.st6{clip-path:url(#SVGID_12_);}
	.st7{clip-path:url(#SVGID_13_);}
	.st8{clip-path:url(#SVGID_14_);}
	.st9{fill:#FFFFFF;stroke:#000000;stroke-width:4;stroke-miterlimit:10;}
	.st10{clip-path:url(#SVGID_14_);fill:none;stroke:#000000;stroke-width:4;stroke-miterlimit:10;}
	.st11{clip-path:url(#SVGID_14_);fill:#FFFFFF;}
	.st12{fill:none;stroke:#000000;stroke-width:4;stroke-miterlimit:10;}
</style>
  <title>rs_school_js</title>
  <path class="st0" d="M285.4,61.4l26.3-1.7c0.6,4.3,1.7,7.5,3.5,9.8c2.9,3.6,6.9,5.4,12.2,5.4c3.9,0,7-0.9,9.1-2.8 c2-1.5,3.2-3.9,3.2-6.4c0-2.4-1.1-4.7-3-6.2c-2-1.8-6.7-3.6-14.1-5.2c-12.1-2.7-20.8-6.3-25.9-10.9c-5.1-4.3-8-10.6-7.8-17.3 c0-4.6,1.4-9.2,4-13c3-4.3,7.1-7.7,12-9.6c5.3-2.3,12.7-3.5,22-3.5C338.3,0,347,2.1,353,6.4c6,4.2,9.6,11,10.7,20.3l-26,1.5 c-0.7-4-2.1-6.9-4.4-8.8s-5.3-2.8-9.2-2.8c-3.2,0-5.6,0.7-7.2,2c-1.5,1.2-2.5,3-2.4,5c0,1.5,0.8,2.9,2,3.8c1.3,1.2,4.4,2.3,9.3,3.3 c12.1,2.6,20.7,5.2,26,7.9c5.3,2.7,9.1,6,11.4,9.9c2.4,4,3.6,8.6,3.5,13.3c0,5.6-1.6,11.2-4.8,15.9c-3.3,4.9-7.9,8.7-13.3,11 c-5.7,2.5-12.9,3.8-21.5,3.8c-15.2,0-25.7-2.9-31.6-8.8S286.1,70.4,285.4,61.4z M6.3,91V1.6h46.1c8.5,0,15.1,0.7,19.6,2.2 c4.4,1.4,8.3,4.3,10.9,8.2c2.9,4.3,4.3,9.3,4.2,14.5c0.3,8.8-4.2,17.2-11.9,21.6c-3,1.7-6.3,2.9-9.7,3.5c2.5,0.7,5,1.9,7.2,3.3 c1.7,1.4,3.1,3,4.4,4.7c1.5,1.7,2.8,3.6,3.9,5.6l13.4,25.9H63L48.2,63.6c-1.9-3.5-3.5-5.8-5-6.9c-2-1.4-4.4-2.1-6.8-2.1H34v36.3 L6.3,91L6.3,91z M34,37.8h11.7c2.5-0.2,4.9-0.6,7.3-1.2c1.8-0.3,3.4-1.3,4.5-2.8c2.7-3.6,2.3-8.7-1-11.8c-1.8-1.5-5.3-2.3-10.3-2.3 H34V37.8z M0,167.6l26.3-1.7c0.6,4.3,1.7,7.5,3.5,9.8c2.8,3.6,6.9,5.5,12.2,5.5c3.9,0,7-0.9,9.1-2.8c2-1.6,3.2-3.9,3.2-6.4 c0-2.4-1.1-4.7-3-6.2c-2-1.8-6.7-3.6-14.2-5.2c-12.1-2.7-20.8-6.3-25.9-10.9c-5.1-4.3-8-10.6-7.8-17.3c0-4.6,1.4-9.2,4-13 c3-4.3,7.1-7.7,12-9.6c5.3-2.3,12.7-3.5,22-3.5c11.4,0,20.1,2.1,26.1,6.4s9.5,11,10.6,20.3l-26,1.5c-0.7-4-2.1-6.9-4.4-8.8 c-2.2-1.9-5.3-2.8-9.2-2.7c-3.2,0-5.6,0.7-7.2,2.1c-1.6,1.2-2.5,3-2.4,5c0,1.5,0.8,2.9,2,3.8c1.3,1.2,4.4,2.3,9.3,3.3 c12.1,2.6,20.7,5.2,26,7.9s9.1,6,11.4,9.9c2.4,4,3.6,8.6,3.6,13.2c0,5.6-1.7,11.1-4.8,15.8c-3.3,4.9-7.9,8.7-13.3,11 c-5.7,2.5-12.9,3.8-21.5,3.8c-15.2,0-25.7-2.9-31.6-8.8C4.1,184,0.8,176.6,0,167.6L0,167.6z" style="fill: rgb(175, 126, 235);"/>
  <path class="st0" d="M 152 160.6 L 176.2 167.9 C 174.9 174 172.2 179.8 168.5 184.9 C 165.1 189.4 160.6 192.9 155.5 195.2 C 150.3 197.5 143.7 198.7 135.7 198.7 C 126 198.7 118 197.3 111.9 194.5 C 105.7 191.7 100.4 186.7 95.9 179.6 C 91.4 172.5 89.2 163.4 89.2 152.3 C 89.2 137.5 93.1 126.1 101 118.2 C 108.9 110.3 120 106.3 134.4 106.3 C 145.7 106.3 154.5 108.6 161 113.1 C 167.4 117.7 172.2 124.7 175.4 134.1 L 151 139.5 C 150.4 137.4 149.5 135.3 148.3 133.5 C 146.8 131.4 144.9 129.8 142.6 128.6 C 140.3 127.4 137.7 126.9 135.1 126.9 C 128.8 126.9 124 129.4 120.7 134.5 C 118.2 138.2 116.9 144.1 116.9 152.1 C 116.9 162 118.4 168.8 121.4 172.5 C 124.4 176.2 128.6 178 134.1 178 C 139.4 178 143.4 176.5 146.1 173.6 C 148.8 170.5 150.8 166.2 152 160.6 Z M 189.5 107.8 L 217.1 107.8 L 217.1 139.1 L 247.3 139.1 L 247.3 107.8 L 275.1 107.8 L 275.1 197.2 L 247.3 197.2 L 247.3 161 L 217.1 161 L 217.1 197.2 L 189.5 197.2 C 189.5 197.2 189.5 107.8 189.5 107.8 Z" style="fill: rgb(175, 126, 235);"/>
  <path class="st0" d="M 282.3 152.5 C 282.3 137.9 286.4 126.5 294.5 118.4 C 302.6 110.3 314 106.2 328.5 106.2 C 343.4 106.2 354.8 110.2 362.9 118.2 C 371 126.2 375 137.4 375 151.8 C 375 162.3 373.2 170.8 369.7 177.5 C 366.3 184.1 361 189.5 354.5 193.1 C 347.8 196.8 339.5 198.7 329.6 198.7 C 319.5 198.7 311.2 197.1 304.6 193.9 C 297.8 190.5 292.2 185.2 288.5 178.7 C 284.4 171.7 282.3 163 282.3 152.5 Z M 309.9 152.6 C 309.9 161.6 311.6 168.1 314.9 172.1 C 318.2 176 322.8 178 328.6 178 C 334.5 178 339.1 176.1 342.4 172.2 C 345.7 168.3 347.3 161.4 347.3 151.4 C 347.3 143 345.6 136.8 342.2 133 C 338.8 129.1 334.2 127.2 328.4 127.2 C 323.3 127 318.4 129.2 315 133.1 C 311.6 137 309.9 143.5 309.9 152.6 Z M 383.3 152.5 C 383.3 137.9 387.4 126.5 395.5 118.4 C 403.6 110.3 415 106.2 429.5 106.2 C 444.4 106.2 455.9 110.2 463.9 118.2 C 471.9 126.2 476 137.4 476 151.8 C 476 162.3 474.2 170.8 470.7 177.5 C 467.3 184.1 462 189.5 455.5 193.1 C 448.8 196.8 440.5 198.7 430.6 198.7 C 420.5 198.7 412.2 197.1 405.6 193.9 C 398.8 190.5 393.2 185.2 389.5 178.7 C 385.4 171.7 383.3 163 383.3 152.5 Z M 410.9 152.6 C 410.9 161.6 412.6 168.1 415.9 172.1 C 419.2 176 423.8 178 429.6 178 C 435.5 178 440.1 176.1 443.4 172.2 C 446.7 168.3 448.3 161.4 448.3 151.4 C 448.3 143 446.6 136.8 443.2 133 C 439.8 129.1 435.2 127.2 429.4 127.2 C 424.3 127 419.3 129.2 416 133.1 C 412.6 137 410.9 143.5 410.9 152.6 Z" style="fill: rgb(175, 126, 235);"/>
  <path class="st0" d="M482.1,107.8h27.6v67.4h43.1v22H482v-89.4H482.1z" style="fill: rgb(175, 126, 235);"/>
  <g transform="matrix(1, 0, 0, 1, 284.621948, -43.601791)">
    <defs>
      <ellipse id="SVGID_1_" transform="matrix(0.7986 -0.6018 0.6018 0.7986 47.8038 265.4101)" cx="420.5" cy="61.3" rx="63" ry="51.8"/>
    </defs>
    <clipPath id="SVGID_2_">
      <ellipse transform="matrix(0.7985999584197998, -0.6018000245094299, 0.6018000245094299, 0.7985999584197998, 47.80379867553711, 265.41009521484375)" cx="420.5" cy="61.3" rx="63" ry="51.8" style="overflow: visible;"/>
    </clipPath>
    <g class="st1" transform="matrix(1, 0, 0, 1, -250.276871, -8.218063)">
      <path class="st2" d="M 398.7 181.8 L 442.9 -58.3 L 398.7 181.8 Z" style="fill: rgb(255, 255, 255);"/>
    </g>
  </g>
</svg>